<?xml version="1.0" standalone="no"?>
<!DOCTYPE svg PUBLIC "-//W3C//DTD SVG 20010904//EN"
 "http://www.w3.org/TR/2001/REC-SVG-20010904/DTD/svg10.dtd">
<svg version="1.0" xmlns="http://www.w3.org/2000/svg"
 width="517.000000pt" height="517.000000pt" viewBox="0 0 517.000000 517.000000"
 preserveAspectRatio="xMidYMid meet">

<g transform="translate(0.000000,517.000000) scale(0.100000,-0.100000)"
fill="#000000" stroke="none">
<path d="M2415 5150 c-1049 -75 -1942 -770 -2270 -1765 -146 -441 -169 -910
-69 -1365 82 -372 273 -768 514 -1066 89 -110 277 -296 390 -386 305 -243 682
-423 1066 -507 336 -74 754 -74 1088 0 140 31 283 75 405 124 876 352 1479
1127 1607 2066 21 151 23 479 5 624 -47 371 -181 755 -366 1055 -145 233 -374
494 -575 654 -512 407 -1159 611 -1795 566z m290 -411 c258 -32 540 -175 709
-360 120 -131 215 -306 251 -459 22 -96 31 -421 17 -585 -18 -198 -75 -337
-199 -481 -96 -111 -258 -217 -380 -249 -81 -21 -1001 -22 -1079 -1 -117 31
-233 104 -350 222 -95 95 -162 200 -201 319 -27 79 -27 85 -31 390 -3 304 -3
312 22 410 130 513 677 863 1241 794z m-1432 -1537 c-4 -10 -84 43 -120 80
-124 128 -125 316 -1 438 28 28 65 54 82 58 l31 8 5 -290 c3 -160 4 -292 3
-294z m2664 545 c51 -36 99 -104 114 -161 15 -56 6 -162 -18 -218 -25 -55 -87
-119 -143 -148 l-40 -20 -1 262 c0 145 -2 278 -3 296 -2 31 -1 33 22 27 14 -3
45 -20 69 -38z m-3260 -857 c36 -22 49 -66 39 -129 -4 -26 -2 -42 7 -48 18
-14 137 -56 143 -51 2 3 10 34 16 68 17 102 78 139 142 89 40 -31 56 -71 56
-139 0 -158 -160 -313 -335 -328 -129 -10 -229 47 -287 165 -27 55 -32 76 -31
132 2 115 47 201 125 240 53 26 84 26 125 1z m1133 -379 c42 -28 106 -60 141
-73 63 -23 70 -23 577 -26 331 -2 532 1 570 8 65 12 178 63 242 109 24 17 53
31 66 31 33 0 91 -62 104 -110 7 -28 10 -232 8 -643 -3 -554 -4 -605 -21 -642
-23 -51 -51 -80 -107 -113 l-45 -27 -780 0 -780 0 -41 22 c-52 28 -111 95
-124 142 -11 40 -14 1207 -4 1261 8 38 73 110 99 110 10 0 53 -22 95 -49z
m-808 -284 c14 -29 49 -84 77 -121 l52 -68 -28 -39 c-43 -60 -132 -192 -137
-203 -8 -18 -103 93 -154 179 -56 93 -95 182 -89 199 3 7 29 18 58 25 30 6 83
27 119 45 36 18 67 34 70 34 3 1 18 -22 32 -51z m2916 -267 c75 -73 176 -223
196 -289 l13 -46 -61 -6 c-34 -4 -93 -18 -132 -33 -39 -14 -75 -26 -80 -26 -5
0 -22 24 -38 53 -16 28 -53 85 -83 124 l-55 73 74 114 c56 88 76 112 88 106 8
-5 43 -36 78 -70z m-2610 -24 c26 -13 64 -29 85 -35 l37 -13 0 -127 c0 -164
-7 -221 -29 -221 -39 0 -222 85 -280 129 l-24 19 29 49 c16 28 52 89 79 136
28 48 51 87 53 87 1 0 24 -11 50 -24z m2877 -511 c71 -32 130 -87 160 -150 55
-111 30 -262 -56 -339 -63 -58 -134 -69 -184 -30 -17 13 -20 25 -18 81 3 78
-6 98 -50 112 -70 24 -124 -34 -111 -116 9 -58 -9 -93 -46 -93 -138 0 -218
225 -135 379 88 160 280 229 440 156z m-1765 -730 l0 -145 -290 0 -290 0 0
145 0 145 290 0 290 0 0 -145z m868 3 l-3 -143 -290 0 -290 0 -3 129 c-1 72 0
136 2 143 4 10 66 13 296 13 l291 0 -3 -142z"/>
<path d="M1997 4040 c-153 -27 -286 -166 -322 -337 -27 -127 -15 -293 29 -388
35 -76 116 -159 194 -197 l67 -33 595 0 595 0 65 32 c187 92 272 281 241 533
-20 157 -108 288 -244 362 l-62 33 -555 2 c-305 0 -576 -3 -603 -7z m145 -310
c80 -23 129 -88 131 -176 1 -44 -4 -61 -28 -95 -38 -53 -86 -79 -148 -79 -56
0 -95 18 -130 59 -79 94 -52 221 57 276 56 28 66 29 118 15z m946 -5 c78 -33
112 -86 112 -173 0 -49 -5 -66 -29 -99 -95 -132 -296 -79 -309 82 -2 30 -2 65
2 79 9 37 56 87 101 107 49 23 75 23 123 4z"/>
<path d="M2474 2064 c-88 -31 -164 -129 -180 -230 -17 -110 74 -245 186 -278
71 -21 94 -20 162 8 l57 23 42 -43 c24 -24 50 -44 59 -44 17 0 90 69 90 85 0
5 -23 33 -51 61 l-51 52 12 38 c21 62 15 139 -15 200 -57 117 -188 171 -311
128z m150 -155 c60 -47 69 -117 24 -174 -49 -62 -132 -64 -182 -4 -43 51 -30
144 26 183 33 23 100 20 132 -5z"/>
</g>
</svg>
